<svg enable-background="new 0 0 60 60" viewBox="0 0 60 60" xmlns="http://www.w3.org/2000/svg"><path d="m-33 67.10236h210v78.13953h-210z" fill="none"/><path d="m30.95181 55.02274c5.76099 0 10.57016-1.1522 13.87647-3.4065-4.10783 3.25621-9.36787 5.20994-15.02867 5.20994-3.25621 0-6.31204-.65125-9.11739-1.80344z" fill="#0054c0"/><path d="m47.33306 49.36193c1.65316-1.95373 2.55487-4.4585 2.50478-7.46424 0-7.11357-5.10975-11.87265-11.92274-12.47379 4.20803-.50096 8.21567-3.75717 8.21567-9.91892 0-3.00573-.95182-5.31013-2.65507-7.11357 6.41224 4.35831 10.62026 11.72236 10.62026 20.08832.0501 6.56252-2.55487 12.4738-6.7629 16.8822z" fill="#0054c0"/><path d="m17.92697 53.67015c-7.41414-4.20803-12.3736-12.12312-12.3736-21.19042 0-7.81491 3.65698-14.7281 9.36787-19.1866v38.27301s9.86882-1.80344 10.1193-7.76481c0-.40076 0-1.55296 0-1.55296v-31.30973h1.90363c5.15985 0 8.56634 2.70516 8.56634 9.41797 0 6.7629-4.00764 9.16749-8.21567 9.16749v.65124c5.96137 0 11.2715 3.05583 11.02102 10.87074-.20038 8.21567-12.22331 11.42178-20.38889 12.62407z" fill="#0054c0"/><g fill="#ff3f00"><path d="m45.22905 6.68052h6.26194v6.26194h-6.26194z"/><path d="m51.4409 3.17383h3.00573v3.00573h-3.00573z"/><path d="m52.6432 6.68052h1.80344v1.80344h-1.80344z"/><path d="m49.13651 3.17383h1.80344v1.80344h-1.80344z"/></g></svg>